<svg xmlns="http://www.w3.org/2000/svg" viewBox="0 0 1076.18 702.79"><path d="M374,111.16c5.13-6.15,9.92-12.66,15.5-18.41a39.93,39.93,0,0,1,21.88-11.52,16.64,16.64,0,0,1,5-.16c6,.75,9.52,5.77,7.75,11.49C423,96.17,421,99.49,419.41,103c5.56.91,11.42,1.88,17.28,2.8a11,11,0,0,0,2.36,0c2.3-.15,3.36-1,3.29-3.69A42.81,42.81,0,0,1,449,77.91,18.91,18.91,0,0,1,454,72.54c4-2.87,8.86-1,10.33,3.73a11.18,11.18,0,0,1,.57,3.48c-.17,10-3,19-9.64,26.61-1.23,1.41-3.66,2.4-1.74,5.07s5,4.36,7.56,3.1,5.51-2.72,7.18-4.92c3.77-5,6.86-10.51,10.2-15.83,3.5-5.57,6.73-11.33,10.53-16.7,2.66-3.76,6.32-6.81,11.48-5.74s7.67,5.35,8.95,10,2,9.56,3,14.79c2.21-2.51,4.21-4.88,6.31-7.14q2.61-2.82,5.42-5.42a5.51,5.51,0,0,1,6.33-1c2.27,1,3.05,2.94,3.13,5.26.08,2.06,0,4.13.14,6.2.25,4.41,2.37,7.26,6.59,8.39,7.55,2,14.22-.43,20.13-3.71-2.34-3-5-5.56-6.52-8.65-1.63-3.25-1-7,.45-10.35a49,49,0,0,1,4.78-9.42A36,36,0,0,1,576.05,57c8.39-3.13,13.26-1.07,17.25,7.68,2.2-4.92,4.35-9.25,6.09-13.74,4.57-11.73,9-23.53,13.43-35.3a11.51,11.51,0,0,1,1-2.13c1.37-2.13,3.3-3.25,5.78-2.23s3.24,3.23,2.49,5.64c-1.37,4.41-3,8.76-4.56,13.1-3.1,8.39-6.6,16.65-9.32,25.17A73.33,73.33,0,0,0,605,82.94a32.17,32.17,0,0,0,1.33,6.64c1.4,4.79,4.19,6.09,8.47,3.39A126.5,126.5,0,0,0,627,83.74c2.12-1.74,3.73-4.11,5.88-5.8,7-5.47,7.82-13.58,9.73-21.37,2-8.22,5.68-15.75,11.76-21.84a15.41,15.41,0,0,1,4.53-3.2,5.73,5.73,0,0,1,8.28,4.75A19.22,19.22,0,0,1,666,44c-3.37,9.24-8.68,17.45-14.71,25.13-2.89,3.68-2.08,7-.5,11.45,1.79-2,3.25-3.51,4.55-5.14,6.34-7.9,12.28-16.16,19.08-23.64a90.41,90.41,0,0,1,16-13.82c10.71-7.27,19.52-2.64,20.11,10.29.24,5.27-.42,10.58-.69,16.34,1.22-1.28,2.26-2.48,3.42-3.54a59.8,59.8,0,0,1,6.91-6c4.79-3.13,9.42-1,10.77,4.52a66.84,66.84,0,0,0,2.37,8.81c2.59,6.49,8.86,9.61,15.79,8.28a39.44,39.44,0,0,0,19.4-10.14C774,61.57,779.07,56,784.12,50.49a5.36,5.36,0,0,0,.84-4c-.47-3.1-1.52-6.11-2-9.21-.65-4.13,1.3-7.29,5.4-8.21,3.72-.83,7.62-.83,11.38-1.51a6.23,6.23,0,0,0,3.77-2.2c4.38-6.53,8.53-13.23,12.76-19.87.37-.58.69-1.19,1.06-1.77,2.14-3.38,4.52-4.51,6.94-3.3s3.19,4,1.94,7.56c-2.13,6.12-4.44,12.17-6.88,18.8,1.92-.09,3.52-.08,5.11-.26q39-4.39,78.06-8.83c1.85-.21,3.71-.48,5.58-.55,2.57-.1,4.5,1,4.88,3.69s-1.18,4.44-3.69,4.86q-8.43,1.43-16.95,2.38Q857.87,32,823.38,35.69l-.59,0c-7.34.44-7.11.52-9.54,7.56-3,8.54-6.27,17-9.61,25.37a28.12,28.12,0,0,1-3.67,6c-1.79,2.43-4.17,4.06-7.36,3.29s-4.22-3.62-4.55-6.56c-.37-3.31-.51-6.64-.8-10.75-2.11,2.23-3.8,4.06-5.52,5.85-7.32,7.6-15.44,14-25.56,17.56-5.6,2-11.24,2.53-17.08.72-7.74-2.38-12.5-7.48-14.81-15.1-.48-1.59-1-3.18-1.63-5.28-1.42,1.38-2.72,2.48-3.83,3.74-3.58,4.06-7.16,8.12-10.61,12.29-1.74,2.1-3.73,2.86-6.25,1.89a4.83,4.83,0,0,1-3.3-5.61c.92-6.82,2-13.62,2.8-20.46a41.13,41.13,0,0,0,0-9.41c-.42-3.59-1.74-4.29-4.69-2.26-4.43,3-9,6.11-12.66,10-6.72,7.3-12.76,15.21-19.09,22.86-2.39,2.88-4.58,6-7.21,8.59-5.62,5.64-11.1,4.77-15.09-2.14-.34-.59-.7-1.18-1.16-1.94-2.52,2.47-4.81,5-7.42,7.18-4.76,3.94-9.34,8.3-14.67,11.31-10.69,6-19.77,1.56-22.3-10.48-.81-3.89-1.11-7.89-1.59-11.41-7.48,7.23-15.07,14.73-22.83,22.06a43.76,43.76,0,0,1-19.82,10.61c-14.08,3.53-23.47-1.42-28.48-15.34-2.29,2.63-4.44,5.14-6.64,7.61-1.37,1.55-2.71,3.13-4.21,4.54-3.91,3.69-8.7,2.26-9.66-3-.73-4-.78-8.23-1.36-12.31a93.56,93.56,0,0,0-1.95-9.53c-.26-1.06-1.09-2-2.06-3.64-2,2.36-3.85,4.1-5.12,6.22-4.64,7.76-9,15.73-13.65,23.46-3.19,5.27-7.25,9.81-13,12.6-8.31,4.07-16.36,1.82-21.09-6.19-1-1.72-1.91-1.77-3.7-1.56a44.39,44.39,0,0,1-9.64.09c-3.71-.38-7.35-1.39-11-2-3.06-.47-5.2-1.75-5.49-5.32-3.49,3-6.63,6.09-10.18,8.61-5.05,3.58-10.29,6.92-15.66,10-3.75,2.13-7.86,3.7-11.93-1.17-2.23,5.77-4.89,10.9-6.17,16.35-2.64,11.19-4.63,22.53-6.72,33.83-2.87,15.49-5.59,31-8.42,46.5a10.11,10.11,0,0,1-1.21,3.29,4.29,4.29,0,0,1-5,2.34,4.13,4.13,0,0,1-3.3-4.35,57.83,57.83,0,0,1,.64-8.83c3.27-19,6.08-38.11,10.18-56.94,3.47-15.94,4.78-32.1,7.07-48.15A6.32,6.32,0,0,0,365,106c-.78-3.31.18-5.44,2.81-6.07a5.27,5.27,0,0,1,6.46,4.47,22.18,22.18,0,0,1,0,3.82C374.18,109.37,374.09,110.5,374,111.16ZM415.9,90.28c-9.12-1.73-27.46,11.88-30.62,21.75,2,.67,3.84,1.4,5.78,1.92a2.94,2.94,0,0,0,2.1-.37c7.22-4.67,14-9.88,19.1-16.91A64.4,64.4,0,0,0,415.9,90.28ZM584.16,65a20.07,20.07,0,0,0-2.5-.11,9.1,9.1,0,0,0-2,.42A27.3,27.3,0,0,0,564.75,78a25.39,25.39,0,0,0-2.57,7.46c-.41,2.16.58,4.12,3.22,3.81,4-.47,7.85-1.71,10.22-5.19a74.43,74.43,0,0,0,6-10.48C582.8,71.05,583.26,68.13,584.16,65Zm212.49-3.07.65.19q4.1-11.46,8.18-22.93a104.38,104.38,0,0,0-9.58,11.28,2.55,2.55,0,0,0-.4,1.66C795.84,55.35,796.26,58.61,796.65,61.88Z" style="fill:red"/><path d="M844.91,294.86c-4.27,3.55-8.74,6.88-12.76,10.69-9.5,9-18.77,18.26-28.18,27.36a23.06,23.06,0,0,1-4.23,3.2c-2.19,1.28-4.6,2.1-6.94.41s-2.59-4.28-2-6.93c.93-4.23,2-8.44,2.91-12.66,1.82-8.17,3.69-16.34,3.3-24.81-.15-3.17,0-6.83-3-8.55s-6.09.53-8.31,2.36c-5.43,4.5-10.91,9.08-15.54,14.35-12.82,14.58-22.45,31.33-31.46,48.43a3.88,3.88,0,0,0-.15,1.06c7-.77,13.92-1.83,20.86-2.24,16.11-.94,32.22-1.63,48.34-2.26a27.24,27.24,0,0,1,7.58,1.05c3.37.87,5,3.45,4.18,6.05-.76,2.45-2.9,3.07-6.37,2.64-4.86-.61-9.82-1.42-14.66-1.06-20.89,1.55-41.75,3.5-62.62,5.29a3.74,3.74,0,0,0-3.75,3.06,7.93,7.93,0,0,1-1.69,3.07c-2.52,2.87-6.45,2-7.65-1.61-.22-.64-.34-1.32-.6-2.35-3.38.69-6.76,1.23-10.05,2.1-6.36,1.69-12.76,3.32-19,5.47-3.07,1.06-5.86,3.08-8.62,4.91-2.09,1.39-4.05,2.11-6.19.38a4.2,4.2,0,0,1-.18-6.33c1.94-2,4.23-4.12,6.78-5,9.38-3.21,18.92-5.95,28.43-8.8a16.9,16.9,0,0,1,5.2-1c6.27.17,8.13-3.54,9.16-9,3.25-17,7-33.92,10.26-50.92,3.73-19.43,7.53-38.84,13.53-57.73a11.19,11.19,0,0,0,.24-1.66c-1.07.1-1.93.11-2.76.27-18.87,3.47-37.77,6.79-56.58,10.56-4.29.86-8.43,1.82-12.77,1.11-2.89-.47-4.55-2.29-4.43-4.64s2-3.95,4.81-4.38c15-2.3,29.95-4.52,44.9-7,9.32-1.55,18.56-3.58,27.85-5.3q35.4-6.56,70.81-13a29.33,29.33,0,0,1,2.92-.42c3.11-.26,5.2,1.09,5.57,3.56s-1.12,4.45-4.2,5.12c-3.85.83-7.74,1.46-11.61,2.17-17.52,3.19-35,6.34-52.56,9.62a3.71,3.71,0,0,0-2.33,2.12c-6.38,19.91-10.86,40.27-14.5,60.84-1.58,8.92-3.26,17.81-4.9,26.72a4.83,4.83,0,0,0,.19,3c2.1-3.27,4.15-6.57,6.31-9.79,7.29-10.91,14.91-21.61,24.9-30.24a56.81,56.81,0,0,1,13.31-8.55c8.06-3.69,14.81-.45,17.83,7.94,2.1,5.82,1.79,11.88,1,17.83s-2.15,12-3.25,18c-.17.93-.33,1.86-.49,2.79l.75.53c4.22-4.34,8.31-8.81,12.68-13,6.38-6.13,12.83-12.22,19.51-18a31.58,31.58,0,0,1,8.83-5.22c4.69-1.87,9.34.35,10.36,5.26a49.27,49.27,0,0,1,.64,13.13c-.36,5.68-1.58,11.31-2.07,17-.34,4,.89,4.87,4.91,4.3a8.86,8.86,0,0,0,6.61-4.17A42.3,42.3,0,0,1,873.5,312c6-4.45,9.85-2.58,10.91,4.92,3.35-2.57,5.75-5.26,6.34-9.75a198.63,198.63,0,0,1,17.75-60.35c3-6.19,6.57-12.1,10.11-18,1.68-2.81,3.89-5.64,7.76-4.63s4.59,4.58,4.86,8c.74,9.11-1.33,17.86-4.12,26.39-6.41,19.65-15,38.27-27.26,55.07-2.68,3.67-1.92,8.49-.87,12.84.12.52,1.85,1.21,2.48.95a18.16,18.16,0,0,0,5.9-3.22c7.51-7.21,14.85-14.61,22.17-22a5.72,5.72,0,0,0,1.18-2.94c2.67-15,11.55-26,22.95-35.32a7.75,7.75,0,0,1,3.9-2c1.91-.13,4.52-.12,5.64,1a6.84,6.84,0,0,1,1.47,5.8,36.61,36.61,0,0,1-5.08,9.91c-5.08,7-10.54,13.74-15.86,20.57-.89,1.15-1.85,2.26-3.46,4.21,3.78.59,6.82,1.54,9.83,1.44a92.15,92.15,0,0,0,41.47-11.37c.6-.33,1.15-.76,1.77-1.06,2.12-1,4.09-.78,5.58,1.09s1.16,3.67-.17,5.43c-.45.6-1,1.12-1.63,1.78a12.19,12.19,0,0,0,10.86-1.24c4.07-2.54,7.87-5.51,11.81-8.27,1.68-1.18,1.69-2.46.9-4.3-4-9.25-3.36-18.28,2.08-26.77a21.24,21.24,0,0,1,12.86-9.31,11.89,11.89,0,0,1,12,3.06,10.22,10.22,0,0,1,2.26,11.77,76.06,76.06,0,0,1-7.12,12.85c-2.78,4.14-6.14,7.9-9.66,12.35,3.7,3.25,7,7,11.1,9.59,8.37,5.33,17.14,10,25.74,15a40.1,40.1,0,0,1,4,2.42c2,1.53,2.84,3.55,1.58,6-1.07,2-3.51,2.81-5.91,1.5-14.84-8.08-30.56-14.82-42.13-27.84a1.31,1.31,0,0,0-.45-.26c-4.35,3-8.44,6.48-13.06,8.95a44.39,44.39,0,0,1-12.45,4.19c-5.87,1.11-8.21-1.63-7.17-7.94-.92.35-1.69.58-2.41.92A109.24,109.24,0,0,1,951.69,314a26.55,26.55,0,0,1-15.12-3.13c-1.62-.93-2.38-.32-3.46.77-6.33,6.32-12.61,12.71-19.19,18.76a29.9,29.9,0,0,1-8.26,5c-8,3.48-13.73.44-15.76-8l-.59-2.47c-1.52,1.16-2.79,2.16-4.09,3.11-4.48,3.26-9.06,6.34-14.75,7a5.35,5.35,0,0,1-2.9-.05c-3.19-1.71-6.26-.58-9.42,0-8.75,1.45-14.9-3.62-14.57-12.47.21-5.67,1.4-11.31,2-17,.34-3.29.39-6.62.57-9.93Zm76.86-53.54c-9.51,15.74-15.18,32.85-19,50.67C911.62,276,918.94,259.49,921.77,241.32Zm106.55,40.53c3.46-2.53,11.83-14,12.84-17.89.32-1.26.24-3.32-.53-4s-2.85-.56-4.06-.07C1028.73,263.05,1025,272.82,1028.32,281.85Z" style="fill:red"/><path d="M138.23,38c-.42,4.55-.47,8.17-1.12,11.69-3.72,20-7.91,40-11.3,60.08-4.2,24.85-7.79,49.8-11.62,74.7a10.56,10.56,0,0,0,.15,4.39c1.39-4.68,2.71-9.38,4.17-14,5.29-16.83,10.69-33.68,20.77-48.37,3.68-5.35,8.73-9.79,13.34-14.46a14.11,14.11,0,0,1,4.85-2.74c5.16-2,10.39.11,11.64,5.68a83.09,83.09,0,0,1,1.8,18.37c0,8.65-1,17.29-1.33,25.95a35.58,35.58,0,0,0,.66,7.62c.45,2.58,1.91,3.2,3.95,1.51a58.43,58.43,0,0,0,8.54-8.08c4.2-5.21,7.94-10.78,11.85-16.21,2.8-3.88,4.77-5,7.34-4.11s3.81,3.37,3.55,7.94c-.3,5.3-.89,10.6-.92,15.91-.06,8.08,3.81,10.2,10.69,5.9,10-6.22,16-15.63,21.1-26.18-9.53-3.41-11.24-11.18-11.4-19.6s2-16.57,4.61-24.55C231.93,92,235,85,239.79,78.86a25,25,0,0,1,5.52-5.25c5.24-3.5,11.59-.92,12.21,5.34a74.18,74.18,0,0,1-.3,17.62c-1.44,10-3.69,19.92-5.6,29.88a2.52,2.52,0,0,0,.29,1.8c2.3-2.21,4.7-4.33,6.9-6.64,7.34-7.72,12.55-16.86,17.42-26.23,8.16-15.69,14.23-32.2,19.33-49.09.2-.66.39-1.32.64-2,1.07-2.72,3.09-4,5.39-3.52a4.54,4.54,0,0,1,3.32,5.76c-1.48,5.81-3.09,11.61-5.12,17.23-8,21.93-16.08,43.8-20.43,66.82-1.31,6.89-2.23,13.83-1.07,20.84.34,2.09,1.08,4.11,1.81,6.81,2-1.27,3.65-2,4.79-3.15q11.31-11.84,22.38-23.89c.72-.79.77-2.36.84-3.58.74-12.86,4.66-24.51,13.2-34.34a21.59,21.59,0,0,1,5.63-4.67,5.92,5.92,0,0,1,9,5.75,38.84,38.84,0,0,1-2.38,10,114.54,114.54,0,0,1-14.15,25.84c-.79,1.12-1.58,3.4-1,4.07,1.1,1.34,3.18,2.83,4.71,2.69a31.38,31.38,0,0,0,9.28-2.57,58.65,58.65,0,0,0,7.62-4.48c2.92-1.8,5.64-1.59,7.09.6s.74,4.82-1.92,6.62c-5.88,4-12,7.59-19.18,8.74-5.75.91-10.44-.92-14.61-5.33-2.86,3.23-5.45,6.54-8.44,9.44-5,4.86-9.89,9.94-15.47,14-7.44,5.47-14.61,2.35-17.06-6.62-2.34-8.58-1.72-17.16-.28-25.76.65-3.85,1.45-7.68,2.22-11.73-4.12,4.34-7.78,8.72-12,12.47-3.72,3.3-8.12,5.82-12.12,8.82a8.2,8.2,0,0,0-2.46,3.1c-4.65,10.44-10.38,20.14-19,27.81-4.44,4-9.21,7.4-15.34,8.35s-11.35-1.43-13.71-7.2c-1.24-3-1.58-6.43-2.16-9.7a25,25,0,0,1,0-4.24c-4.54,4.84-8.64,9.73-13.32,14a19.65,19.65,0,0,1-8.93,4.75c-6.23,1.22-11.61-3.56-12-10.82-.43-7.83.07-15.71.17-23.57.09-7.46.22-14.92.24-22.39a22,22,0,0,0-.88-4.1,54.79,54.79,0,0,0-5.26,3.7c-6.19,5.52-10.7,12.3-14.4,19.65-6.81,13.52-11.33,27.87-15.76,42.27-2.88,9.4-6.08,18.7-9.14,28.05-.15.45-.25.92-.51,1.85,3.26-.71,6.18-1.41,9.13-2q19-3.65,38-7.21a23.5,23.5,0,0,1,2.64-.33c3.21-.23,5.45,1.25,5.75,3.78s-1.42,4.38-4.67,5c-16.23,3.13-32.57,5.77-48.65,9.55C90.41,228,63,235,37.66,248c-10.81,5.54-21.25,11.6-30.09,20.08-1.7,1.62-3.65,2.08-5.63.72a4,4,0,0,1-1.21-5.74,20.92,20.92,0,0,1,4.54-4.95c13-10.65,27.74-18.26,43.11-24.81,16.53-7.06,33.76-11.9,51.12-16.36,1-.26,2.09-.56,3.13-.87a7,7,0,0,0,1-.45c-1.1-13.55.74-26.84,2.83-40,5.28-33.23,11-66.39,16.65-99.57,1.35-8,3-15.85,4.46-23.8.54-3.07.77-6.19,1.21-9.86-1.32.43-2.12.63-2.86.94-11.78,5-23.48,10.2-35.37,14.92C76.47,63.83,62.34,69.42,47.07,71a46.67,46.67,0,0,1-7.66.13,4,4,0,0,1-4.11-4.19c0-2.4,1.5-3.74,3.75-4.29a6.5,6.5,0,0,1,1.46-.2c14.68-.2,28.25-5,41.57-10.46,21.51-8.77,42.81-18.06,64.26-27,11.83-4.93,23.9-9.19,36.75-10.66,1.16-.13,2.6-.52,3.46,0,1.39.8,3.26,2.18,3.36,3.44.12,1.44-1.14,3.44-2.41,4.43s-3.17.8-4.78,1.22c-8.54,2.26-17.18,4.22-25.58,6.93C150.43,32.48,144,35.58,138.23,38ZM249.61,82.69l-1.24-.39a40.61,40.61,0,0,0-3.56,4.89,114.59,114.59,0,0,0-5.7,12c-3,7.93-5.29,16.11-5.22,24.68a25.83,25.83,0,0,0,1.68,8.29c.37,1,2.12,1.78,3.4,2.18.33.1,1.58-1.51,1.8-2.48,2.4-10.23,4.93-20.44,6.9-30.76C248.81,95,249,88.81,249.61,82.69Z" style="fill:red"/><path d="M593.08,576a82.44,82.44,0,0,1,8.65,3.17c5.71,2.87,8.68,7.76,8.48,14.1a38.33,38.33,0,0,1-1.93,11c-7.38,21.66-20.12,39.41-39.77,51.52a57.22,57.22,0,0,1-16.64,6.56c-12.3,2.93-20.93-7.33-17.43-20.07,2.19-8,6-15.14,10.62-21.95a7.66,7.66,0,0,0,1.47-3.33c-5.31,3.79-10.6,7.61-15.93,11.37-28.78,20.34-57.49,40.77-86.38,60.94-7.65,5.34-15.72,10.12-24.79,12.9-3.4,1-6.5.84-9-1.74s-2.46-6-1.07-8.86c3.83-8,7.82-15.89,12.13-23.61,9-16.18,17.8-32.46,24.12-49.92,4.89-13.5,8.49-27.3,8.36-41.75-.1-10.89-1.22-21.75-7.13-31.29-10.5-16.93-30-24.09-48.79-17.67-19.56,6.67-33.33,19.71-40.58,39.23-3.24,8.73-2.86,17.38,2.74,25,2.25,3.08,5.62,5.42,8.71,7.8,3.66,2.83,7.56,5.34,11.36,8,2.6,1.81,3.42,4.09,2.23,6.25a4.39,4.39,0,0,1-6.46,1.4c-8-5.15-16.27-10.1-22.38-17.66-6.64-8.21-8.45-17.69-6.18-27.8,4.19-18.58,15.37-32.3,30.95-42.62,13.79-9.12,28.87-13.51,45.22-9.25,17.2,4.49,29.35,15.29,35.15,32.37,6.06,17.86,4.95,35.9.41,53.87-5.89,23.31-16.65,44.54-28.33,65.36q-5.34,9.54-10.58,19.12c-.73,1.33-1.27,2.77-1.89,4.15l.58.62c3.72-1.88,7.66-3.43,11.12-5.69,14.66-9.6,29.37-19.13,43.7-29.19,26-18.28,51.78-36.93,77.66-55.41a47.28,47.28,0,0,0,6.35-5l-4.63,1.79c-2.53,1-4.73.52-6.21-1.8a4.58,4.58,0,0,1,.94-6.4,46.39,46.39,0,0,1,7.54-5.13,66,66,0,0,1,11-5c9.58-3,17-9.4,24.68-15.34,18.66-14.49,37-29.46,55.64-43.91,12.44-9.62,24.81-19.41,38.92-26.63,8.46-4.32,17.26-7.93,26.8-8.67a46.43,46.43,0,0,1,14.88,1.06c10.4,2.69,14,10.5,8.68,19.93-5.55,9.93-11.92,19.45-18.44,28.79-13.25,19-26.76,37.73-40.34,56.45a78.64,78.64,0,0,0-11.44,24.08c-2.1,7.08.3,9.9,7.44,8.06a172.75,172.75,0,0,0,24.28-8.17c15.85-6.74,31.33-14.36,47.19-21.08,14.47-6.12,29.25-11.54,43.9-17.24a13.68,13.68,0,0,1,3.14-.81c2.52-.36,4.61.37,5.31,3s-.66,4.43-3.07,5.31c-4.34,1.59-8.69,3.14-13.1,4.51-17.26,5.37-33.27,13.66-49.7,21-13.94,6.19-27.88,12.4-42,18.11a78.44,78.44,0,0,1-17.62,4.61c-9.73,1.46-16.83-5.85-15.09-15.62a57.13,57.13,0,0,1,5-15C673.32,580,690.1,559.4,705.6,538c7.32-10.11,14.13-20.6,21.11-31a21.15,21.15,0,0,0,1.74-3.73c1.69-4,.87-5.82-3.38-6.94-7.41-1.95-14.66-.81-21.78,1.51-13,4.22-24.46,11.13-35.16,19.49q-36.76,28.71-73.6,57.35C594.08,575.07,593.68,575.47,593.08,576Zm8.31,19.43c0-6.33-3.67-10-8.42-9.93a3.3,3.3,0,0,0-1.86,1,66.81,66.81,0,0,1-5.29,5c-2.92,2.13-6.41,3.55-9.09,5.91a146.93,146.93,0,0,0-26.88,32c-3.33,5.25-6.14,10.8-7,17.06-.8,5.56,1.75,8.11,7.28,7.24A40.11,40.11,0,0,0,567,646.33c15.13-10.64,25.47-25,32-42.16A82,82,0,0,0,601.39,595.44Z" style="fill:red"/><path d="M192.07,409.78c-14.12-3.1-28.31-5.92-42.34-9.38-10-2.46-19.86-5.56-29.64-8.82-3.27-1.08-6.3-3.26-9.08-5.4-8.49-6.56-9.82-16.56-4-27,5.28-9.41,12.61-17.1,20.54-24.22a245.81,245.81,0,0,1,64.8-42.25c9-4,18.3-6.82,28.17-7.24,16-.68,29.33,5.45,40.54,16.59a13.39,13.39,0,0,1,2.49,3.63c1,2.06.81,4.12-1.19,5.53s-4.13,1-5.85-.77c-2.08-2.09-3.86-4.56-6.19-6.29-6.89-5.1-14.46-8.75-23.15-9.67a51.71,51.71,0,0,0-24.58,3.82c-31,12.28-58.15,30.48-80.64,55.21a51.85,51.85,0,0,0-8.68,14.23c-2.31,5.35-.85,9.55,4.36,12.29a97.43,97.43,0,0,0,19.78,8.21c12.92,3.47,26.12,5.88,39.15,9,8.52,2,16.92,4.52,25.44,6.55a9.32,9.32,0,0,0,5.57-.65c15.14-6.95,30.54-13.22,46.64-17.58,11.1-3,22.32-4.87,33.83-1.93.81.21,2.29-.75,3-1.58,4.84-6.05,10.19-11.5,17.1-15.2,7.41-4,15-4.44,22.17.19,6.88,4.44,10.18,11.26,9.8,19.38-.39,8.33-5.51,13.88-12.33,18a40.39,40.39,0,0,1-23.51,5.87c-1.5,5.62-2.67,11.29-4.53,16.74-5.91,17.34-14.47,33.4-24.39,48.73-4.17,6.44-8.75,12.61-13.32,18.77a25.65,25.65,0,0,1-5.41,5.4c-4.54,3.28-10,.85-9.83-4.68A74.72,74.72,0,0,1,249.44,478a445.15,445.15,0,0,1,24.39-66.42c3-6.59,6.62-12.93,10.37-20.19-4.37-.06-8.41-.71-12.23,0a185.56,185.56,0,0,0-24.41,5.44c-9.55,3-18.77,7.08-28.12,10.7-.72.28-1.39.7-2.66,1.34,1.43.67,2.43,1.15,3.44,1.6,7.16,3.18,14,6.82,19.09,13,5.28,6.4,5.43,13.27,1.9,20.42-3.4,6.86-8.79,12-14.71,16.72-11,8.7-23.13,15.65-35.6,22a390.82,390.82,0,0,1-56.28,23.64c-10.94,3.57-22,6.83-33.69,7a26.4,26.4,0,0,1-8.39-1.18c-6.35-2.05-9.33-8.21-7.56-14.65,2-7.47,6.71-13.34,11.79-18.86,13.63-14.79,29.29-27.23,46.11-38.1,15.11-9.77,30.8-18.66,46.23-27.93,1-.59,2-1.15,3-1.72Zm-90.93,94.87c3.5-.5,7-.86,10.5-1.54,15.71-3.1,30.63-8.65,45.39-14.74,19.78-8.15,39-17.39,56.74-29.44,6.93-4.71,13.63-9.74,18.32-16.9,4-6.13,3.49-10.58-2-15.39-6.56-5.79-14.59-8.81-22.7-11.58a5.63,5.63,0,0,0-4.06.26c-11.18,6-22.43,11.88-33.35,18.32-20.89,12.32-40.79,26.07-58.55,42.69-6,5.65-12,11.44-16,18.81C91.6,502.24,93,504.49,101.14,504.65Zm155.42-19.11.71.38a13.73,13.73,0,0,0,1.11-1.19c13.61-18.57,25-38.39,32.81-60.09,1.65-4.58,2.44-9.48,3.42-14.28a3.69,3.69,0,0,0-.91-3.07,51.79,51.79,0,0,0-6-3.65A429.36,429.36,0,0,0,256.56,485.54Zm41.25-97.72c1.92,4.25,3.53,8,5.34,11.66a3.33,3.33,0,0,0,2.33,1.63c8.87.39,16.77-2.15,22.92-8.73,4-4.22,3.89-9.26.42-14.64a10.73,10.73,0,0,0-12.61-4.63C307.82,375.57,302.55,381.94,297.81,387.82Z" style="fill:red"/><path d="M435.16,378.73c3.38-1,6.54-1.6,9.49-2.75,9.25-3.63,18.45-7.39,27.62-11.21,12.47-5.19,25.17-9.72,38.39-12.5a10.22,10.22,0,0,0,6.71-4.34c8.3-11.08,19.59-18.12,32.49-22.53,2.88-1,6.48-.75,9.55-.1,4.74,1,6.79,5.49,5.27,10.14-1.57,4.8-5,8.17-8.81,11.21-8.35,6.7-18,10.84-28.21,13.63l-7,1.88c1.88,1.25,3,2.56,4.38,2.8a47.84,47.84,0,0,0,10.51,1c12.09-.65,23.55-4.43,35.09-7.71,3-.85,6-1.86,9.07-2.62s5.32.33,6,2.69-.51,4.7-3.45,5.61c-14.47,4.5-28.89,9.21-44,10.84a39.35,39.35,0,0,1-16.93-1.49c-5.69-1.92-8.14-6.69-10.34-12.27-6.37,1.94-12.77,3.5-18.88,5.82-12.87,4.89-25.56,10.25-38.39,15.27a109.93,109.93,0,0,1-14,4.64c-6.65,1.62-9.82.08-13.65-6-2.08,1.61-4.14,3.18-6.18,4.79-5.34,4.21-10.71,8.18-17.82,9.2-10.07,1.43-17.11-2.29-21-11.65-.56-1.35-1.08-2.73-1.92-4.88-1.62,4.48-2.89,8.34-4.41,12.1a45.87,45.87,0,0,1-4.07,8.47c-4.05,6.06-10.66,5.92-14.73-.14a32.6,32.6,0,0,1-5.54-18.42c0-6.33,1-12.68,1.7-19a9.62,9.62,0,0,1,1.44-3.53c2.83-5,8.09-5.72,11.54-1.14,2.68,3.57,4.48,7.81,6.66,11.76.32.58.55,1.22.95,2.12.95-1.61,1.66-3,2.55-4.27,1.51-2.14,3.54-3.47,6.28-3.1s3.9,2.45,4.56,4.84c1.05,3.79,1.81,7.67,3.07,11.39,2.43,7.15,8.64,8.13,15.45,5,8.34-3.83,14.51-10.28,21.93-15.15a9.07,9.07,0,0,0,2.62-2.34c6.14-9.22,15.45-14.44,24.83-19.48,5.36-2.88,11-5.24,16.59-7.7,2.67-1.18,5.24-.9,7.19,1.55s1.23,5.94-1.56,6.62c-8.63,2.12-15.07,7.93-22.18,12.59-5.43,3.56-10.6,7.51-15.92,11.24C435.93,373.14,434.62,375,435.16,378.73Zm91.45-27.36c11.28-3.61,21.73-7.56,29.12-17.41C549,333.13,530.39,344.22,526.61,351.37ZM363,393.28l1.06.07,5.13-13.72c-5.46-.69-7.16-2.3-6.09-5.95,1-3.48-1.3-5.45-2.75-7.88C358.47,375.31,358.33,384.57,363,393.28Z" style="fill:red"/><path d="M868.17,591.14c7.93-2.71,15.42-5.39,23-7.82,28.36-9.07,57.11-16.51,86.75-20.1,1.56-.19,3.08-.67,4.63-.93a16.57,16.57,0,0,1,3.5-.36c2.84.14,4.93,2.05,5.06,4.44s-1.61,4.35-4.64,4.79c-4.38.63-8.78,1.17-13.17,1.73-21.44,2.72-42.38,7.79-63,13.92q-21.48,6.36-42.67,13.64c-8.93,3.06-17.59,6.89-26.39,10.33q-20.61,8.06-41.27,16a19.58,19.58,0,0,1-4.89,1c-2.38.26-4.37-.54-5.12-3s.52-4.55,2.8-5.48,4.8-1.06,7.07-1.93c13.87-5.33,27.7-10.77,41.53-16.19,4.86-1.91,9.63-4,14.55-5.76,2.43-.85,3.12-2.11,3.27-4.62.7-11.88,1.14-23.82,2.69-35.6,1.9-14.32,4.82-28.51,7.3-42.76.81-4.65,1.67-9.29,2.47-14,.16-.93.14-1.9.27-3.83-4.61,2.73-8.75,4.79-12.46,7.44-15.7,11.21-31.28,22.59-46.87,33.95-1.67,1.21-3.16,2.67-4.71,4s-2.7,3-2.28,5.38a3.8,3.8,0,0,1-2.81,4.59,4.22,4.22,0,0,1-5.24-2.25,8.62,8.62,0,0,1,.72-10,35,35,0,0,1,6.73-7q27.45-20,55.14-39.66a35.42,35.42,0,0,1,9.3-4.39c6.29-2.09,11.2,1,11.14,7.63-.06,6-1.37,12.08-2.37,18.09-2.62,15.63-5.72,31.18-7.92,46.86-1.39,9.82-1.49,19.82-2.16,29.74A18.22,18.22,0,0,0,868.17,591.14Z" style="fill:red"/></svg>